#tb 0: 1/15
#media_type 0: video
#codec_id 0: rawvideo
#dimensions 0: 320x240
#sar 0: 0/1
#tb 1: 1/11025
#media_type 1: audio
#codec_id 1: pcm_s16le
#sample_rate 1: 11025
#channel_layout 1: 4
0,          0,          0,        1,   230400, 0x03e25ead
1,          0,          0,     5513,    11026, 0x27ad637c
0,          1,          1,        1,   230400, 0x0a520ffd
0,          2,          2,        1,   230400, 0x0b11a671
0,          3,          3,        1,   230400, 0x7d3fce32
0,          4,          4,        1,   230400, 0x1edb18cc
0,          5,          5,        1,   230400, 0x1d470493
0,          6,          6,        1,   230400, 0xe53ba01d
0,          7,          7,        1,   230400, 0xc4df13c2
1,       5513,       5513,      735,     1470, 0x4af4b7a3
0,          8,          8,        1,   230400, 0x5febe6c9
1,       6248,       6248,      735,     1470, 0x2601fc3b
0,          9,          9,        1,   230400, 0xb0de2ed9
1,       6983,       6983,      735,     1470, 0xd94ec488
0,         10,         10,        1,   230400, 0x4991ee21
1,       7718,       7718,      735,     1470, 0x5ffb6bdd
0,         11,         11,        1,   230400, 0x6b367a75
1,       8453,       8453,      735,     1470, 0xc5fece50
0,         12,         12,        1,   230400, 0x1d406b55
1,       9188,       9188,      735,     1470, 0xf4988a98
0,         13,         13,        1,   230400, 0x2bbbf1d3
1,       9923,       9923,      735,     1470, 0xa839620f
0,         14,         14,        1,   230400, 0x2a5ee265
1,      10658,      10658,      735,     1470, 0x800a77ff
0,         15,         15,        1,   230400, 0x0ae9de8d
1,      11393,      11393,      735,     1470, 0x8fc8a729
0,         16,         16,        1,   230400, 0x567eabf8
1,      12128,      12128,      735,     1470, 0x78708001
0,         17,         17,        1,   230400, 0x00260e67
1,      12863,      12863,      735,     1470, 0xb601958b
1,      13598,      13598,      735,     1470, 0xb054d1d3
1,      14333,      14333,      735,     1470, 0xce18bb41
1,      15068,      15068,      735,     1470, 0x43d182f9
1,      15803,      15803,      735,     1470, 0xe9448449
1,      16538,      16538,      735,     1470, 0x175ea4b3
1,      17273,      17273,      735,     1470, 0xf96b0e6a
1,      18008,      18008,      735,     1470, 0x12cc42fb
